<?xml version="1.0" encoding="UTF-8" standalone="no"?>
<!-- Created with Inkscape (http://www.inkscape.org/) -->

<svg
   width="63.999996"
   height="63.999996"
   viewBox="0 0 16.933332 16.933332"
   version="1.1"
   id="svg1"
   inkscape:version="1.3.2 (091e20e, 2023-11-25, custom)"
   sodipodi:docname="yinyang_icon.svg"
   inkscape:export-filename="..\Desktop\Portfolio_3D\public\assets\yinyang_icon.svg"
   inkscape:export-xdpi="96"
   inkscape:export-ydpi="96"
   xmlns:inkscape="http://www.inkscape.org/namespaces/inkscape"
   xmlns:sodipodi="http://sodipodi.sourceforge.net/DTD/sodipodi-0.dtd"
   xmlns:xlink="http://www.w3.org/1999/xlink"
   xmlns="http://www.w3.org/2000/svg"
   xmlns:svg="http://www.w3.org/2000/svg">
  <sodipodi:namedview
     id="namedview1"
     pagecolor="#00ffff"
     bordercolor="#666666"
     borderopacity="1.0"
     inkscape:showpageshadow="2"
     inkscape:pageopacity="0.0"
     inkscape:pagecheckerboard="0"
     inkscape:deskcolor="#d1d1d1"
     inkscape:document-units="mm"
     showgrid="true"
     inkscape:zoom="12.265961"
     inkscape:cx="28.53425"
     inkscape:cy="37.542921"
     inkscape:window-width="2560"
     inkscape:window-height="1494"
     inkscape:window-x="-11"
     inkscape:window-y="-11"
     inkscape:window-maximized="1"
     inkscape:current-layer="layer2">
    <inkscape:grid
       id="grid1"
       units="px"
       originx="0"
       originy="0"
       spacingx="0.26458333"
       spacingy="0.26458333"
       empcolor="#0099e5"
       empopacity="0.30196078"
       color="#0099e5"
       opacity="0.14901961"
       empspacing="5"
       dotted="false"
       gridanglex="30"
       gridanglez="30"
       visible="true" />
  </sodipodi:namedview>
  <defs
     id="defs1">
    <linearGradient
       id="linearGradient22"
       inkscape:label="Blanc">
      <stop
         style="stop-color:#00000c;stop-opacity:0.77913278;"
         offset="0"
         id="stop20" />
      <stop
         style="stop-color:#000000;stop-opacity:0.94444442;"
         offset="0.45253861"
         id="stop21" />
      <stop
         style="stop-color:#313131;stop-opacity:0.92140919;"
         offset="1"
         id="stop22" />
    </linearGradient>
    <linearGradient
       id="linearGradient2"
       inkscape:label="Blanc">
      <stop
         style="stop-color:#c8c8c8;stop-opacity:0.86585367;"
         offset="0"
         id="stop16" />
      <stop
         style="stop-color:#f4f4f4;stop-opacity:0.94444442;"
         offset="0.45253861"
         id="stop17" />
      <stop
         style="stop-color:#ffffff;stop-opacity:1;"
         offset="1"
         id="stop18" />
    </linearGradient>
    <linearGradient
       inkscape:collect="always"
       xlink:href="#linearGradient2"
       id="linearGradient3"
       x1="-16.9333"
       y1="10.583334"
       x2="1.0658141e-14"
       y2="10.583334"
       gradientUnits="userSpaceOnUse"
       spreadMethod="reflect" />
    <linearGradient
       inkscape:collect="always"
       xlink:href="#linearGradient22"
       id="linearGradient20"
       x1="0"
       y1="-6.349999"
       x2="16.933332"
       y2="-6.349999"
       gradientUnits="userSpaceOnUse" />
    <linearGradient
       inkscape:collect="always"
       xlink:href="#linearGradient2"
       id="linearGradient24"
       x1="6.8791661"
       y1="12.7"
       x2="10.054166"
       y2="12.7"
       gradientUnits="userSpaceOnUse" />
    <linearGradient
       inkscape:collect="always"
       xlink:href="#linearGradient22"
       id="linearGradient26"
       x1="6.8791661"
       y1="4.2333336"
       x2="10.054166"
       y2="4.2333336"
       gradientUnits="userSpaceOnUse" />
  </defs>
  <g
     inkscape:label="Calque 1"
     inkscape:groupmode="layer"
     id="layer1">
    <path
       style="display:none;fill:#000000;fill-rule:evenodd;stroke-width:1.6389;paint-order:stroke fill markers"
       id="path1"
       sodipodi:type="arc"
       sodipodi:cx="8.4666624"
       sodipodi:cy="-8.4666662"
       sodipodi:rx="8.4666662"
       sodipodi:ry="8.4666662"
       sodipodi:start="0"
       sodipodi:end="3.1402776"
       sodipodi:open="true"
       sodipodi:arc-type="arc"
       d="M 16.933329,-8.4666662 A 8.4666662,8.4666662 0 0 1 8.4722295,-1.8302455e-6 8.4666662,8.4666662 0 0 1 3.5062838e-6,-8.4555321"
       transform="rotate(90)" />
    <path
       style="display:none;fill:#ffffff;fill-rule:evenodd;stroke-width:1.6389;paint-order:stroke fill markers"
       id="path1-7"
       sodipodi:type="arc"
       sodipodi:cx="-8.46667"
       sodipodi:cy="8.4666662"
       sodipodi:rx="8.4666662"
       sodipodi:ry="8.4666662"
       sodipodi:start="0"
       sodipodi:end="3.1402776"
       sodipodi:open="true"
       sodipodi:arc-type="arc"
       d="M -3.8146973e-6,8.4666662 A 8.4666662,8.4666662 0 0 1 -8.461103,16.933331 8.4666662,8.4666662 0 0 1 -16.933329,8.4778003"
       transform="rotate(-90)" />
    <path
       d="M 8.4666667,0 A 4.2333331,4.2333331 0 0 0 4.2333333,4.2333333 4.2333331,4.2333331 0 0 0 8.4666667,8.4666667 4.2333331,4.2333331 0 0 0 12.7,4.2333333 4.2333331,4.2333331 0 0 0 8.4666667,0 Z"
       style="display:none;fill:#ffffff;fill-rule:evenodd;stroke-width:1.42281;paint-order:stroke fill markers"
       id="path4" />
    <path
       d="M 8.4666664,8.4666662 A 4.2333331,4.2333331 0 0 0 4.233333,12.7 4.2333331,4.2333331 0 0 0 8.4666664,16.933333 4.2333331,4.2333331 0 0 0 12.7,12.7 4.2333331,4.2333331 0 0 0 8.4666664,8.4666662 Z"
       style="display:none;fill:#000000;fill-rule:evenodd;stroke-width:1.42281;paint-order:stroke fill markers"
       id="path4-0" />
  </g>
  <g
     inkscape:groupmode="layer"
     id="layer2"
     inkscape:label="Calque 2"
     style="display:inline">
    <g
       id="g26"
       transform="rotate(-33.434819,8.4666665,8.4666665)">
      <path
         id="path1-5"
         style="fill:url(#linearGradient20);fill-rule:evenodd;stroke-width:1.6389;paint-order:stroke fill markers"
         d="M 0,-8.4552979 A 8.4666662,8.4666662 0 0 0 8.4723511,0 8.4666662,8.4666662 0 0 0 16.933333,-8.4666667 4.2333331,4.2333331 0 0 0 12.7,-12.7 a 4.2333331,4.2333331 0 0 0 -4.2333333,4.2333333 4.2333331,4.2333331 0 0 0 5.167e-4,0.00568 h -0.00103 a 4.2333331,4.2333331 0 0 1 -4.2328166,4.227649 4.2333331,4.2333331 0 0 1 -4.23229977,-4.2219646 z"
         inkscape:label="black_goutte"
         transform="rotate(90)" />
      <path
         id="path1-7-4"
         style="fill:url(#linearGradient3);fill-rule:evenodd;stroke-width:1.6389;paint-order:stroke fill markers"
         d="m 0,8.4666667 a 4.2333331,4.2333331 0 0 0 -4.2333333,-4.2333334 4.2333331,4.2333331 0 0 0 -4.2333334,4.2333334 4.2333331,4.2333331 0 0 0 5.168e-4,0.00568 h -5.168e-4 A 4.2333331,4.2333331 0 0 1 -12.7,12.7 4.2333331,4.2333331 0 0 1 -16.9323,8.4780355 h -10e-4 A 8.4666662,8.4666662 0 0 0 -8.4609823,16.933333 8.4666662,8.4666662 0 0 0 -0.03462321,8.9989339 4.2333331,4.2333331 0 0 0 0,8.4666667 Z"
         inkscape:label="white_goutte"
         transform="rotate(-90)" />
      <circle
         style="fill:url(#linearGradient26);fill-rule:evenodd;stroke-width:1.60356;paint-order:stroke fill markers"
         id="path5"
         cx="8.4666662"
         cy="4.2333336"
         r="1.5875"
         inkscape:label="black_rond" />
      <circle
         style="fill:url(#linearGradient24);fill-rule:evenodd;stroke-width:1.60356;paint-order:stroke fill markers"
         id="path5-1"
         cx="8.4666662"
         cy="12.7"
         r="1.5875"
         inkscape:label="white_rond" />
    </g>
  </g>
</svg>
